# xmcd CD database file
#
# Track frame offsets:
#	182
#	13127
#	27002
#	42280
#	55290
#	67110
#	80400
#	93292
#	105430
#	116752
#	130902
#	146110
#	160800
#	178812
#
# Disc length: 2575 seconds
#
# Revision: 0
# Processed by: cddbd v1.5.1PL0 Copyright (c) Steve Scherf et al.
# Submitted via: CDex 1.51
#
DISCID=be0a0d0e
DTITLE=Muddy Waters - Chicago Blues
DYEAR=1900
DGENRE=Blues
TTITLE0=Louisiana Blues
TTITLE1=I'm Ready
TTITLE2=Honey Bee
TTITLE3=I just Want To Make Love To You
TTITLE4=Kind Hearted Woman
TTITLE5=She Moves Me
TTITLE6=(I'm Your) Hoochie Coochie Man
TTITLE7=Long Distance Call
TTITLE8=She's All right
TTITLE9=Rollin' Stone
TTITLE10=Standing Around Crying
TTITLE11=Too Young To Know
TTITLE12=My Home Is In The Delta
TTITLE13=Good Morning School Girl
EXTD=
EXTT0=
EXTT1=
EXTT2=
EXTT3=
EXTT4=
EXTT5=
EXTT6=
EXTT7=
EXTT8=
EXTT9=
EXTT10=
EXTT11=
EXTT12=
EXTT13=
PLAYORDER=
